<?xml version="1.0" encoding="UTF-8" standalone="no"?>
<!-- Created with Inkscape (http://www.inkscape.org/) -->

<svg
   xmlns:dc="http://purl.org/dc/elements/1.1/"
   xmlns:cc="http://creativecommons.org/ns#"
   xmlns:rdf="http://www.w3.org/1999/02/22-rdf-syntax-ns#"
   xmlns:svg="http://www.w3.org/2000/svg"
   xmlns="http://www.w3.org/2000/svg"
   xmlns:sodipodi="http://sodipodi.sourceforge.net/DTD/sodipodi-0.dtd"
   xmlns:inkscape="http://www.inkscape.org/namespaces/inkscape"
   width="64px"
   height="64px"
   id="svg2984"
   version="1.1"
   inkscape:version="0.48.4 r9939"
   sodipodi:docname="icon_pattern.svg">
  <defs
     id="defs2986">
    <inkscape:perspective
       sodipodi:type="inkscape:persp3d"
       inkscape:vp_x="50.338034 : 64.455772 : 1"
       inkscape:vp_y="-1.2246468e-13 : -1000 : 0"
       inkscape:vp_z="-13.661966 : 64.455772 : 1"
       inkscape:persp3d-origin="18.338034 : 75.122439 : 1"
       id="perspective3839" />
  </defs>
  <sodipodi:namedview
     id="base"
     pagecolor="#ffffff"
     bordercolor="#666666"
     borderopacity="1.0"
     inkscape:pageopacity="0.0"
     inkscape:pageshadow="2"
     inkscape:zoom="16.69"
     inkscape:cx="30.021979"
     inkscape:cy="32"
     inkscape:current-layer="layer1"
     showgrid="true"
     inkscape:document-units="px"
     inkscape:grid-bbox="true"
     inkscape:window-width="1920"
     inkscape:window-height="1001"
     inkscape:window-x="0"
     inkscape:window-y="26"
     inkscape:window-maximized="1" />
  <metadata
     id="metadata2989">
    <rdf:RDF>
      <cc:Work
         rdf:about="">
        <dc:format>image/svg+xml</dc:format>
        <dc:type
           rdf:resource="http://purl.org/dc/dcmitype/StillImage" />
        <dc:title></dc:title>
      </cc:Work>
    </rdf:RDF>
  </metadata>
  <g
     id="layer1"
     inkscape:label="Layer 1"
     inkscape:groupmode="layer">
    <path
       style="opacity:1;fill:#000000;fill-opacity:1;fill-rule:nonzero;stroke-width:0.10000000000000001;stroke-miterlimit:4;stroke-dasharray:none"
       d="M 8.8125 0 C 3.9372999 0 0 3.8838402 0 8.71875 L 0 55.28125 C 0 60.11616 3.9372999 64 8.8125 64 L 55.1875 64 C 60.0627 64 64 60.11616 64 55.28125 L 64 8.71875 C 64 3.8838402 60.0627 0 55.1875 0 L 8.8125 0 z M 11.84375 4.1875 L 52.15625 4.1875 C 56.39435 4.1875 59.8125 7.5781752 59.8125 11.78125 L 59.8125 52.21875 C 59.8125 56.421825 56.39435 59.8125 52.15625 59.8125 L 11.84375 59.8125 C 7.6056499 59.8125 4.1875 56.421825 4.1875 52.21875 L 4.1875 11.78125 C 4.1875 7.5781752 7.6056499 4.1875 11.84375 4.1875 z "
       id="rect2992" />
    <path
       style="fill:#000000;fill-opacity:1;fill-rule:nonzero;stroke-width:0.1;stroke-miterlimit:4;stroke-dasharray:none"
       d="m 37.013893,38.443398 c -1.593395,0 -2.875,1.174517 -2.875,2.625 l 0,12.5 c 0,1.450483 1.281605,2.59375 2.875,2.59375 l 15.9375,0 c 1.593395,0 2.875,-1.143267 2.875,-2.59375 l 0,-12.5 c 0,-1.450483 -1.281605,-2.625 -2.875,-2.625 l -15.9375,0 z m -0.21875,1.40625 6.375,0 c 0.637367,0 1.15625,0.463414 1.15625,1.03125 l 0,4.875 c 0,0.567836 -0.518883,1.03125 -1.15625,1.03125 l -6.375,0 c -0.637367,0 -1.15625,-0.463414 -1.15625,-1.03125 l 0,-4.875 c 0,-0.567836 0.518883,-1.03125 1.15625,-1.03125 z m 10,0 6.375,0 c 0.637367,0 1.15625,0.463414 1.15625,1.03125 l 0,4.875 c 0,0.567836 -0.518883,1.03125 -1.15625,1.03125 l -6.375,0 c -0.637367,0 -1.15625,-0.463414 -1.15625,-1.03125 l 0,-4.875 c 0,-0.567836 0.518883,-1.03125 1.15625,-1.03125 z m -8.53125,4.0625 c -0.378406,0 -0.6875,0.309094 -0.6875,0.6875 0,0.378406 0.309094,0.6875 0.6875,0.6875 l 3.4375,0 c 0.378406,0 0.6875,-0.309094 0.6875,-0.6875 0,-0.378406 -0.309094,-0.6875 -0.6875,-0.6875 l -3.4375,0 z m 10,0 c -0.378406,0 -0.6875,0.309094 -0.6875,0.6875 0,0.378406 0.309094,0.6875 0.6875,0.6875 l 3.4375,0 c 0.378406,0 0.6875,-0.309094 0.6875,-0.6875 0,-0.378406 -0.309094,-0.6875 -0.6875,-0.6875 l -3.4375,0 z m -11.46875,3.9375 6.375,0 c 0.637367,0 1.15625,0.463414 1.15625,1.03125 l 0,4.875 c 0,0.567836 -0.518883,1.03125 -1.15625,1.03125 l -6.375,0 c -0.637367,0 -1.15625,-0.463414 -1.15625,-1.03125 l 0,-4.875 c 0,-0.567836 0.518883,-1.03125 1.15625,-1.03125 z m 10,0 6.375,0 c 0.637367,0 1.15625,0.463414 1.15625,1.03125 l 0,4.875 c 0,0.567836 -0.518883,1.03125 -1.15625,1.03125 l -6.375,0 c -0.637367,0 -1.15625,-0.463414 -1.15625,-1.03125 l 0,-4.875 c 0,-0.567836 0.518883,-1.03125 1.15625,-1.03125 z m -8.53125,4.0625 c -0.378406,0 -0.6875,0.309094 -0.6875,0.6875 0,0.378406 0.309094,0.6875 0.6875,0.6875 l 3.4375,0 c 0.378406,0 0.6875,-0.309094 0.6875,-0.6875 0,-0.378406 -0.309094,-0.6875 -0.6875,-0.6875 l -3.4375,0 z m 10,0 c -0.378406,0 -0.6875,0.309094 -0.6875,0.6875 0,0.378406 0.309094,0.6875 0.6875,0.6875 l 3.4375,0 c 0.378406,0 0.6875,-0.309094 0.6875,-0.6875 0,-0.378406 -0.309094,-0.6875 -0.6875,-0.6875 l -3.4375,0 z"
       id="rect3837"
       inkscape:connector-curvature="0" />
    <path
       style="fill:#ff0000;fill-opacity:1;fill-rule:nonzero;stroke-width:0.1;stroke-miterlimit:4;stroke-dasharray:none"
       d="m 21.398231,36.494439 c 0,0.380105 0.307395,0.6875 0.6875,0.6875 l 9,0 1.625,0 c 0.380105,0 0.6875,-0.307395 0.6875,-0.6875 l 0,-1.625 0,-9 c 0,-0.380105 -0.307395,-0.6875 -0.6875,-0.6875 l -1.625,0 c -0.380106,0 -0.6875,0.307395 -0.6875,0.6875 l 0,6.1875 -6.6875,-6.6875 c -0.267718,-0.267718 -0.701033,-0.267718 -0.96875,0 l -1.15625,1.15625 c -0.267718,0.267718 -0.267718,0.701032 0,0.96875 l 6.6875,6.6875 -6.1875,0 c -0.380105,0 -0.6875,0.307395 -0.6875,0.6875 l 0,1.625 z"
       id="rect3864"
       inkscape:connector-curvature="0" />
    <path
       id="path3905"
       d="m 8.1298074,11.149431 c -1.085739,0 -1.969644,0.789415 -1.969644,1.756709 l 0,8.304444 c 0,0.967294 0.883905,1.756709 1.969644,1.756709 l 10.8596556,0 c 1.085739,0 1.969644,-0.789415 1.969644,-1.756709 l 0,-8.304444 c 0,-0.967294 -0.883905,-1.756709 -1.969644,-1.756709 l -10.8596556,0 z m 2.5019786,6.92037 5.855698,0 c 0.644605,0 1.171139,0.526534 1.171139,1.171139 0,0.644605 -0.526534,1.17114 -1.171139,1.17114 l -5.855698,0 c -0.6446046,0 -1.1711386,-0.526535 -1.1711386,-1.17114 0,-0.644605 0.526534,-1.171139 1.1711386,-1.171139 z"
       style="fill:#000000;fill-opacity:1;fill-rule:nonzero;stroke-width:0.1;stroke-miterlimit:4;stroke-dasharray:none"
       inkscape:connector-curvature="0" />
  </g>
</svg>
