<?xml version="1.0" encoding="UTF-8" standalone="no"?>
<!-- Created with Inkscape (http://www.inkscape.org/) -->

<svg
   xmlns:dc="http://purl.org/dc/elements/1.1/"
   xmlns:cc="http://creativecommons.org/ns#"
   xmlns:rdf="http://www.w3.org/1999/02/22-rdf-syntax-ns#"
   xmlns:svg="http://www.w3.org/2000/svg"
   xmlns="http://www.w3.org/2000/svg"
   xmlns:sodipodi="http://sodipodi.sourceforge.net/DTD/sodipodi-0.dtd"
   xmlns:inkscape="http://www.inkscape.org/namespaces/inkscape"
   width="64px"
   height="64px"
   id="svg2984"
   version="1.1"
   inkscape:version="0.48.4 r9939"
   sodipodi:docname="icon_pattern.svg">
  <defs
     id="defs2986" />
  <sodipodi:namedview
     id="base"
     pagecolor="#ffffff"
     bordercolor="#666666"
     borderopacity="1.0"
     inkscape:pageopacity="0.0"
     inkscape:pageshadow="2"
     inkscape:zoom="5.5"
     inkscape:cx="-0.36363636"
     inkscape:cy="32"
     inkscape:current-layer="layer1"
     showgrid="true"
     inkscape:document-units="px"
     inkscape:grid-bbox="true"
     inkscape:window-width="1920"
     inkscape:window-height="1001"
     inkscape:window-x="0"
     inkscape:window-y="26"
     inkscape:window-maximized="1" />
  <metadata
     id="metadata2989">
    <rdf:RDF>
      <cc:Work
         rdf:about="">
        <dc:format>image/svg+xml</dc:format>
        <dc:type
           rdf:resource="http://purl.org/dc/dcmitype/StillImage" />
        <dc:title />
      </cc:Work>
    </rdf:RDF>
  </metadata>
  <g
     id="layer1"
     inkscape:label="Layer 1"
     inkscape:groupmode="layer">
    <path
       style="opacity:1;fill:#000000;fill-opacity:1;fill-rule:nonzero;stroke-width:0.10000000000000001;stroke-miterlimit:4;stroke-dasharray:none"
       d="M 8.8125 0 C 3.9372999 0 0 3.8838402 0 8.71875 L 0 55.28125 C 0 60.11616 3.9372999 64 8.8125 64 L 55.1875 64 C 60.0627 64 64 60.11616 64 55.28125 L 64 8.71875 C 64 3.8838402 60.0627 0 55.1875 0 L 8.8125 0 z M 11.84375 4.1875 L 52.15625 4.1875 C 56.39435 4.1875 59.8125 7.5781752 59.8125 11.78125 L 59.8125 52.21875 C 59.8125 56.421825 56.39435 59.8125 52.15625 59.8125 L 11.84375 59.8125 C 7.6056499 59.8125 4.1875 56.421825 4.1875 52.21875 L 4.1875 11.78125 C 4.1875 7.5781752 7.6056499 4.1875 11.84375 4.1875 z "
       id="rect2992" />
  </g>
</svg>
