<?xml version="1.0" encoding="UTF-8" standalone="no"?>
<!-- Created with Inkscape (http://www.inkscape.org/) -->

<svg
   xmlns:dc="http://purl.org/dc/elements/1.1/"
   xmlns:cc="http://creativecommons.org/ns#"
   xmlns:rdf="http://www.w3.org/1999/02/22-rdf-syntax-ns#"
   xmlns:svg="http://www.w3.org/2000/svg"
   xmlns="http://www.w3.org/2000/svg"
   xmlns:sodipodi="http://sodipodi.sourceforge.net/DTD/sodipodi-0.dtd"
   xmlns:inkscape="http://www.inkscape.org/namespaces/inkscape"
   width="64px"
   height="64px"
   id="svg2984"
   version="1.1"
   inkscape:version="0.48.4 r9939"
   sodipodi:docname="icon_vloz1.svg"
   inkscape:export-filename="/home/bleha/Dokumenty/grafika/inkscape/skladník/bitmap/icon_vlozit_254px.png"
   inkscape:export-xdpi="357.1875"
   inkscape:export-ydpi="357.1875">
  <defs
     id="defs2986">
    <inkscape:perspective
       sodipodi:type="inkscape:persp3d"
       inkscape:vp_x="50.338034 : 64.455772 : 1"
       inkscape:vp_y="-1.2246468e-13 : -1000 : 0"
       inkscape:vp_z="-13.661966 : 64.455772 : 1"
       inkscape:persp3d-origin="18.338034 : 75.122439 : 1"
       id="perspective3839" />
  </defs>
  <sodipodi:namedview
     id="base"
     pagecolor="#ffffff"
     bordercolor="#666666"
     borderopacity="1.0"
     inkscape:pageopacity="0.0"
     inkscape:pageshadow="2"
     inkscape:zoom="10.27"
     inkscape:cx="12.689944"
     inkscape:cy="29.603355"
     inkscape:current-layer="layer1"
     showgrid="true"
     inkscape:document-units="px"
     inkscape:grid-bbox="true"
     inkscape:window-width="1920"
     inkscape:window-height="1001"
     inkscape:window-x="0"
     inkscape:window-y="26"
     inkscape:window-maximized="1" />
  <metadata
     id="metadata2989">
    <rdf:RDF>
      <cc:Work
         rdf:about="">
        <dc:format>image/svg+xml</dc:format>
        <dc:type
           rdf:resource="http://purl.org/dc/dcmitype/StillImage" />
        <dc:title></dc:title>
      </cc:Work>
    </rdf:RDF>
  </metadata>
  <g
     id="layer1"
     inkscape:label="Layer 1"
     inkscape:groupmode="layer">
    <path
       style="opacity:1;fill:#000000;fill-opacity:1;fill-rule:nonzero;stroke-width:0.10000000000000001;stroke-miterlimit:4;stroke-dasharray:none"
       d="M 8.8125 0 C 3.9372999 0 0 3.8838402 0 8.71875 L 0 55.28125 C 0 60.11616 3.9372999 64 8.8125 64 L 55.1875 64 C 60.0627 64 64 60.11616 64 55.28125 L 64 8.71875 C 64 3.8838402 60.0627 0 55.1875 0 L 8.8125 0 z M 11.84375 4.1875 L 52.15625 4.1875 C 56.39435 4.1875 59.8125 7.5781752 59.8125 11.78125 L 59.8125 52.21875 C 59.8125 56.421825 56.39435 59.8125 52.15625 59.8125 L 11.84375 59.8125 C 7.6056499 59.8125 4.1875 56.421825 4.1875 52.21875 L 4.1875 11.78125 C 4.1875 7.5781752 7.6056499 4.1875 11.84375 4.1875 z "
       id="rect2992" />
    <path
       style="fill:#000000;fill-opacity:1;fill-rule:nonzero;stroke-width:0.1;stroke-miterlimit:4;stroke-dasharray:none"
       d="m 26.936818,25.746609 c -2.445691,0 -4.412818,1.802759 -4.412818,4.029095 l 0,19.186167 c 0,2.226336 1.967127,3.981129 4.412818,3.981129 l 24.462364,0 c 2.445691,0 4.412818,-1.754793 4.412818,-3.981129 l 0,-19.186167 c 0,-2.226336 -1.967127,-4.029095 -4.412818,-4.029095 l -24.462364,0 z m -0.335758,2.158444 9.784947,0 c 0.97829,0 1.77472,0.711291 1.77472,1.582859 l 0,7.482605 c 0,0.871567 -0.79643,1.582858 -1.77472,1.582858 l -9.784947,0 c -0.97829,0 -1.77472,-0.711291 -1.77472,-1.582858 l 0,-7.482605 c 0,-0.871568 0.79643,-1.582859 1.77472,-1.582859 z m 15.348935,0 9.784945,0 c 0.97829,0 1.77472,0.711291 1.77472,1.582859 l 0,7.482605 c 0,0.871567 -0.79643,1.582858 -1.77472,1.582858 l -9.784945,0 c -0.97829,0 -1.774721,-0.711291 -1.774721,-1.582858 l 0,-7.482605 c 0,-0.871568 0.796431,-1.582859 1.774721,-1.582859 z m -13.09456,6.235504 c -0.580813,0 -1.055239,0.474426 -1.055239,1.055239 0,0.580813 0.474426,1.055239 1.055239,1.055239 l 5.276197,0 c 0.580813,0 1.055239,-0.474426 1.055239,-1.055239 0,-0.580813 -0.474426,-1.055239 -1.055239,-1.055239 l -5.276197,0 z m 15.348934,0 c -0.580812,0 -1.055239,0.474426 -1.055239,1.055239 0,0.580813 0.474427,1.055239 1.055239,1.055239 l 5.276196,0 c 0.580813,0 1.055239,-0.474426 1.055239,-1.055239 0,-0.580813 -0.474426,-1.055239 -1.055239,-1.055239 l -5.276196,0 z m -17.603309,6.043642 9.784947,0 c 0.97829,0 1.77472,0.711291 1.77472,1.582859 l 0,7.482605 c 0,0.871568 -0.79643,1.582859 -1.77472,1.582859 l -9.784947,0 c -0.97829,0 -1.77472,-0.711291 -1.77472,-1.582859 l 0,-7.482605 c 0,-0.871568 0.79643,-1.582859 1.77472,-1.582859 z m 15.348935,0 9.784945,0 c 0.97829,0 1.77472,0.711291 1.77472,1.582859 l 0,7.482605 c 0,0.871568 -0.79643,1.582859 -1.77472,1.582859 l -9.784945,0 c -0.97829,0 -1.774721,-0.711291 -1.774721,-1.582859 l 0,-7.482605 c 0,-0.871568 0.796431,-1.582859 1.774721,-1.582859 z m -13.09456,6.235504 c -0.580813,0 -1.055239,0.474427 -1.055239,1.05524 0,0.580812 0.474426,1.055239 1.055239,1.055239 l 5.276197,0 c 0.580813,0 1.055239,-0.474427 1.055239,-1.055239 0,-0.580813 -0.474426,-1.05524 -1.055239,-1.05524 l -5.276197,0 z m 15.348934,0 c -0.580812,0 -1.055239,0.474427 -1.055239,1.05524 0,0.580812 0.474427,1.055239 1.055239,1.055239 l 5.276196,0 c 0.580813,0 1.055239,-0.474427 1.055239,-1.055239 0,-0.580813 -0.474426,-1.05524 -1.055239,-1.05524 l -5.276196,0 z"
       id="rect3837-3"
       inkscape:connector-curvature="0" />
    <path
       style="fill:#808000;fill-opacity:1;fill-rule:nonzero"
       d="m 16.635434,8.9531723 c -1.610302,0 -2.880623,1.2702997 -2.880623,2.8805737 l 0,5.5211 -5.5211972,0 c -1.6103067,0 -2.9106327,1.300304 -2.9106327,2.91058 0,1.610272 1.300326,2.910579 2.9106327,2.910579 l 5.5211972,0 0,5.5211 c 0,1.610272 1.270321,2.91058 2.880623,2.91058 1.610304,0 2.910633,-1.300308 2.910633,-2.91058 l 0,-5.5211 5.521196,0 c 1.610302,0 2.910632,-1.300307 2.910632,-2.910579 0,-1.610276 -1.30033,-2.91058 -2.910632,-2.91058 l -5.521196,0 0,-5.5211 c 0,-1.610274 -1.300329,-2.8805737 -2.910633,-2.8805737 z"
       id="rect3767"
       inkscape:connector-curvature="0" />
  </g>
</svg>
