<?xml version="1.0" encoding="UTF-8" standalone="no"?>
<!-- Created with Inkscape (http://www.inkscape.org/) -->

<svg
   xmlns:dc="http://purl.org/dc/elements/1.1/"
   xmlns:cc="http://creativecommons.org/ns#"
   xmlns:rdf="http://www.w3.org/1999/02/22-rdf-syntax-ns#"
   xmlns:svg="http://www.w3.org/2000/svg"
   xmlns="http://www.w3.org/2000/svg"
   xmlns:sodipodi="http://sodipodi.sourceforge.net/DTD/sodipodi-0.dtd"
   xmlns:inkscape="http://www.inkscape.org/namespaces/inkscape"
   width="64px"
   height="64px"
   id="svg2984"
   version="1.1"
   inkscape:version="0.91 r"
   sodipodi:docname="icon_vloz1.svg"
   inkscape:export-filename="/home/vojta3310/NetBeansProjects/V-Control/src/icons/modules/Skladnik/dark/icon_vlozit_32px.png"
   inkscape:export-xdpi="180"
   inkscape:export-ydpi="180">
  <defs
     id="defs2986">
    <inkscape:perspective
       sodipodi:type="inkscape:persp3d"
       inkscape:vp_x="50.338034 : 64.455772 : 1"
       inkscape:vp_y="-1.2246468e-13 : -1000 : 0"
       inkscape:vp_z="-13.661966 : 64.455772 : 1"
       inkscape:persp3d-origin="18.338034 : 75.122439 : 1"
       id="perspective3839" />
  </defs>
  <sodipodi:namedview
     id="base"
     pagecolor="#ffffff"
     bordercolor="#666666"
     borderopacity="1.0"
     inkscape:pageopacity="0.0"
     inkscape:pageshadow="2"
     inkscape:zoom="10.27"
     inkscape:cx="7.0424269"
     inkscape:cy="28.921758"
     inkscape:current-layer="layer2"
     showgrid="true"
     inkscape:document-units="px"
     inkscape:grid-bbox="true"
     inkscape:window-width="1920"
     inkscape:window-height="982"
     inkscape:window-x="0"
     inkscape:window-y="25"
     inkscape:window-maximized="1" />
  <metadata
     id="metadata2989">
    <rdf:RDF>
      <cc:Work
         rdf:about="">
        <dc:format>image/svg+xml</dc:format>
        <dc:type
           rdf:resource="http://purl.org/dc/dcmitype/StillImage" />
        <dc:title />
      </cc:Work>
    </rdf:RDF>
  </metadata>
  <g
     id="layer1"
     inkscape:label="Layer 1"
     inkscape:groupmode="layer">
    <path
       style="fill:#000000;fill-opacity:1;fill-rule:nonzero;stroke-width:0.1;stroke-miterlimit:4;stroke-dasharray:none"
       d="m 28.375939,25.746277 0,1.774743 0,0.383728 8.010325,0 c 0.978302,0 1.774742,0.7113 1.774742,1.582878 l 0,7.482699 c 0,0.871578 -0.79644,1.582878 -1.774742,1.582878 l -9.785067,0 c -0.978303,0 -1.774743,-0.7113 -1.774743,-1.582878 l 0,-5.372194 -0.527626,0 -1.774743,0 0,17.363698 c 0,2.226364 1.967152,3.981179 4.412874,3.981179 l 24.462668,0 c 2.445721,0 4.412873,-1.754815 4.412873,-3.981179 l 0,-19.186407 c 0,-2.226364 -1.967152,-4.029145 -4.412873,-4.029145 l -23.023688,0 z m 13.574383,2.158471 9.785067,0 c 0.978302,0 1.774742,0.7113 1.774742,1.582878 l 0,7.482699 c 0,0.871578 -0.79644,1.582878 -1.774742,1.582878 l -9.785067,0 c -0.978303,0 -1.774743,-0.7113 -1.774743,-1.582878 l 0,-7.482699 c 0,-0.871578 0.79644,-1.582878 1.774743,-1.582878 z M 28.855599,34.14033 c -0.58082,0 -1.055252,0.474432 -1.055252,1.055252 0,0.58082 0.474432,1.055253 1.055252,1.055253 l 5.276262,0 c 0.58082,0 1.055252,-0.474433 1.055252,-1.055253 0,-0.58082 -0.474432,-1.055252 -1.055252,-1.055252 l -5.276262,0 z m 15.349125,0 c -0.58082,0 -1.055252,0.474432 -1.055252,1.055252 0,0.58082 0.474432,1.055253 1.055252,1.055253 l 5.276262,0 c 0.58082,0 1.055252,-0.474433 1.055252,-1.055253 0,-0.58082 -0.474432,-1.055252 -1.055252,-1.055252 l -5.276262,0 z m -17.603527,6.043718 9.785067,0 c 0.978302,0 1.774742,0.7113 1.774742,1.582878 l 0,7.482699 c 0,0.871578 -0.79644,1.582878 -1.774742,1.582878 l -9.785067,0 c -0.978303,0 -1.774743,-0.7113 -1.774743,-1.582878 l 0,-7.482699 c 0,-0.871578 0.79644,-1.582878 1.774743,-1.582878 z m 15.349125,0 9.785067,0 c 0.978302,0 1.774742,0.7113 1.774742,1.582878 l 0,7.482699 c 0,0.871578 -0.79644,1.582878 -1.774742,1.582878 l -9.785067,0 c -0.978303,0 -1.774743,-0.7113 -1.774743,-1.582878 l 0,-7.482699 c 0,-0.871578 0.79644,-1.582878 1.774743,-1.582878 z M 28.855599,46.41963 c -0.58082,0 -1.055252,0.474432 -1.055252,1.055252 0,0.58082 0.474432,1.055253 1.055252,1.055253 l 5.276262,0 c 0.58082,0 1.055252,-0.474433 1.055252,-1.055253 0,-0.58082 -0.474432,-1.055252 -1.055252,-1.055252 l -5.276262,0 z m 15.349125,0 c -0.58082,0 -1.055252,0.474432 -1.055252,1.055252 0,0.58082 0.474432,1.055253 1.055252,1.055253 l 5.276262,0 c 0.58082,0 1.055252,-0.474433 1.055252,-1.055253 0,-0.58082 -0.474432,-1.055252 -1.055252,-1.055252 l -5.276262,0 z"
       id="rect3837"
       inkscape:connector-curvature="0" />
    <path
       style="fill:#808000;fill-opacity:1;fill-rule:nonzero;stroke-width:0.1;stroke-miterlimit:4;stroke-dasharray:none"
       d="m 7.2189063,29.545658 c 0,0.642361 0.5194727,1.161845 1.1618229,1.161845 l 15.2093388,0 2.74613,0 c 0.642349,0 1.161825,-0.519484 1.161825,-1.161845 l 0,-2.746175 0,-15.209587 c 0,-0.642361 -0.519476,-1.161843 -1.161825,-1.161843 l -2.74613,0 c -0.642352,0 -1.161824,0.519482 -1.161824,1.161843 l 0,10.456591 -11.301384,-11.30157 c -0.452424,-0.45243 -1.1846935,-0.45243 -1.6371151,0 l -1.9539789,1.95401 c -0.4524232,0.452432 -0.4524232,1.184713 0,1.637142 l 11.301384,11.30157 -10.4564208,0 c -0.6423502,0 -1.1618229,0.519485 -1.1618229,1.161844 l 0,2.746175 z"
       id="path3953"
       inkscape:connector-curvature="0" />
  </g>
  <g
     inkscape:groupmode="layer"
     id="layer2"
     inkscape:label="Layer 2"
     style="display:none">
    <path
       style="opacity:1;fill:#000000;fill-opacity:1;fill-rule:nonzero;stroke-width:0.1;stroke-miterlimit:4;stroke-dasharray:none"
       d="M 8.8125,0 C 3.9372999,0 0,3.8838402 0,8.71875 l 0,46.5625 C 0,60.11616 3.9372999,64 8.8125,64 l 46.375,0 C 60.0627,64 64,60.11616 64,55.28125 L 64,8.71875 C 64,3.8838402 60.0627,0 55.1875,0 L 8.8125,0 Z m 3.03125,4.1875 40.3125,0 c 4.2381,0 7.65625,3.3906752 7.65625,7.59375 l 0,40.4375 c 0,4.203075 -3.41815,7.59375 -7.65625,7.59375 l -40.3125,0 c -4.2381001,0 -7.65625,-3.390675 -7.65625,-7.59375 l 0,-40.4375 c 0,-4.2030748 3.4181499,-7.59375 7.65625,-7.59375 z"
       id="rect2992"
       inkscape:connector-curvature="0" />
  </g>
</svg>
