<?xml version="1.0" encoding="UTF-8" standalone="no"?>
<!-- Svg Vector Icons : http://www.onlinewebfonts.com/icon -->

<svg
   xmlns:dc="http://purl.org/dc/elements/1.1/"
   xmlns:cc="http://creativecommons.org/ns#"
   xmlns:rdf="http://www.w3.org/1999/02/22-rdf-syntax-ns#"
   xmlns:svg="http://www.w3.org/2000/svg"
   xmlns="http://www.w3.org/2000/svg"
   xmlns:sodipodi="http://sodipodi.sourceforge.net/DTD/sodipodi-0.dtd"
   xmlns:inkscape="http://www.inkscape.org/namespaces/inkscape"
   version="1.1"
   x="0px"
   y="0px"
   viewBox="0 0 1000 1000"
   enable-background="new 0 0 1000 1000"
   xml:space="preserve"
   id="svg5063"
   inkscape:version="0.91 r"
   sodipodi:docname="film.svg"><defs
     id="defs5105" /><sodipodi:namedview
     pagecolor="#ffffff"
     bordercolor="#666666"
     borderopacity="1"
     objecttolerance="10"
     gridtolerance="10"
     guidetolerance="10"
     inkscape:pageopacity="0"
     inkscape:pageshadow="2"
     inkscape:window-width="1920"
     inkscape:window-height="982"
     id="namedview5103"
     showgrid="false"
     inkscape:zoom="0.236"
     inkscape:cx="-413.13559"
     inkscape:cy="500"
     inkscape:window-x="0"
     inkscape:window-y="25"
     inkscape:window-maximized="1"
     inkscape:current-layer="svg5063" /><metadata
     id="metadata5065"> Svg Vector Icons : http://www.onlinewebfonts.com/icon <rdf:RDF><cc:Work
     rdf:about=""><dc:format>image/svg+xml</dc:format><dc:type
       rdf:resource="http://purl.org/dc/dcmitype/StillImage" /><dc:title></dc:title></cc:Work></rdf:RDF></metadata><g
     id="g5067"><g
       id="g5069"><path
         d="M683.8,500L316.2,683.8V316.2L683.8,500z M990,71.3v857.5H10V71.3H990z M622.5,193.7H745v-61.3H622.5V193.7z M438.8,193.7h122.5v-61.3H438.8V193.7L438.8,193.7z M255,193.7h122.5v-61.3H255V193.7z M71.3,193.7h122.5v-61.3H71.3V193.7z M193.8,806.3H71.3v61.2h122.5V806.3z M377.5,806.3H255v61.2h122.5V806.3z M561.3,806.3H438.8v61.2h122.5V806.3z M745,806.3H622.5v61.2H745V806.3L745,806.3z M928.8,806.3H806.3v61.2h122.5V806.3z M928.8,255H71.3v490h857.5V255z M928.8,132.5H806.3v61.3h122.5V132.5z"
         id="path5071" /></g><g
       id="g5073" /><g
       id="g5075" /><g
       id="g5077" /><g
       id="g5079" /><g
       id="g5081" /><g
       id="g5083" /><g
       id="g5085" /><g
       id="g5087" /><g
       id="g5089" /><g
       id="g5091" /><g
       id="g5093" /><g
       id="g5095" /><g
       id="g5097" /><g
       id="g5099" /><g
       id="g5101" /></g></svg>